<svg xmlns="http://www.w3.org/2000/svg"><symbol id="brachiosaurus" viewBox="0 0 256 256"><path d="M59.8 166.3a31.6 31.6 0 0 0-7.6.8v.2c0 .2.3.5.8.9a8.5 8.5 0 0 0 1.9 1 16.9 16.9 0 0 0 2.7 1l2.7.8 2.4.6a5 5 0 0 0 1.5.2h2.1a7.3 7.3 0 0 0 2.5-.4l2.3-.8a5 5 0 0 0 1.7-1.5 27.4 27.4 0 0 0-6.3-2.1 29.9 29.9 0 0 0-6.7-.7z"/><path d="M128 2a125.7 125.7 0 1 0 125.7 125.7A125.7 125.7 0 0 0 128 2zm82 69.3v.3a8.2 8.2 0 0 1-.1 1.4c-.2.7-.2 1.4-.4 2.1l-.3 2.1c-.1.6-.2 1.1-.2 1.3a7.6 7.6 0 0 0-.9 1.8 11.8 11.8 0 0 0-.7 2c-.2.6-.3 1.3-.5 1.9a16.7 16.7 0 0 1-.8 2 21.1 21.1 0 0 1-1.6 3 21.1 21.1 0 0 0-1.6 3l-19.7 27.4a1.1 1.1 0 0 1-.3.5c0 .1-.1.2-.2.3l-.3.3-.4.5-1.7 2.2-2 2.9-2.2 3.2a26.9 26.9 0 0 0-1.9 3.2 15.3 15.3 0 0 0-1.4 2.9 8 8 0 0 0-.5 2.3c0 .3-.2.5-.2.7s.2.5.2.7c-.2.1-.3.2-.3.4s.1.4.3.4v10.1a2.2 2.2 0 0 1-.3 1l-.3 1.1a6.7 6.7 0 0 0-.6 1.2 3.4 3.4 0 0 0-.5 1.1v1.7a.5.5 0 0 1 0 .4c-.2.2-.2.5-.4.8l-.7.8-.5.4v.4s.7.2.8.4.8.3.8.4v2.8a23.3 23.3 0 0 1-.6 3.5c-.2 1.1-.5 2.3-.8 3.4s-.4 2.3-.6 3.5a19.8 19.8 0 0 0-.3 3.5 42.9 42.9 0 0 0 .3 6.2 40.9 40.9 0 0 0 1 6.1q.9 2.8 2.1 5.7a23.9 23.9 0 0 0 3.4 5.1 3.6 3.6 0 0 1-1.2.8l-1.7.7-1.7.5h-1.9l-1-.3-1.2-.2-.9-.3h-.8l-.7-.3c-.3-.1-.4-.3-.6-.5s-.3-.4-.4-.7a26.1 26.1 0 0 0 .2-4l-.3-4.2c-.2-1.4-.3-2.8-.5-4.2l-.6-4.1a3.5 3.5 0 0 1-.1-.6l-.3-.6c.1-1.1.1-2.3.1-3.6a27.1 27.1 0 0 0-.1-4 26.3 26.3 0 0 0-.6-3.9 11.6 11.6 0 0 0-1.4-3.4 3.7 3.7 0 0 0-1.4 1.8 17.3 17.3 0 0 0-.8 2.7c-.2 1-.2 1.9-.4 2.9a11.8 11.8 0 0 0-.9 2.3v3.7a17.6 17.6 0 0 0 0 2.3v1.4c0 2.8-.2 5.6-.1 8.2s.2 5.4.5 8.2l.4.3.8.6a2.7 2.7 0 0 1 .8.7.7.7 0 0 1 .4.6c0 .2-.3.5-.8.8l-1.9.8a8.4 8.4 0 0 1-2 .8l-1.2.5h-.2l-4.7-2.6a.4.4 0 0 1-.2-.5v-.6a27.9 27.9 0 0 1 0-2.9 28.1 28.1 0 0 0 .1-3 24.3 24.3 0 0 0-.3-3.8l-.6-3.6-.6-3.7c-.1-1.3-.2-2.6-.2-3.9s0-2.3.1-3.3l.3-2.7.6-2.8c.2-1 .4-2 .6-3.2a.8.8 0 0 0 0-.7 2 2 0 0 1-.1-.7l-1.9.2-1.8.5-1.9.6-1.9.5-1.4.2-1 .2c-.4 0-.7-.2-1-.1l-1-.2h-1.8c-1.8 0-3.6.1-5.2 0a44.3 44.3 0 0 0-5.2-.2h-2.4a4.1 4.1 0 0 0-2.4.8 45.1 45.1 0 0 1 0 5.2c0 1.7-.1 3.3-.1 5l-.3 5.1c0 1.7-.1 3.4-.1 5.1v1a7.5 7.5 0 0 0 0 1.5v2.5c0 .6.6 1.1 1.1 1.7l1.4 1.7a16.3 16.3 0 0 1 1.1 1.7 3.2 3.2 0 0 1 .6 1.8v.4a10.5 10.5 0 0 1-4 .4c.1.4 0 .7-.2.7h-2.7a7.8 7.8 0 0 1-2.2-.2 3.7 3.7 0 0 1-1.8-.8 2.3 2.3 0 0 1-.8-1.9 5 5 0 0 1 .2-1.2l.3-1.3.3-1.3a6.6 6.6 0 0 0 .1-1.4 23.4 23.4 0 0 0-.3-3.8c-.1-1.2-.4-2.4-.6-3.5s-.5-2.6-.8-3.8a19.5 19.5 0 0 1-.7-3.9h-.5c-.2 0-.3.7-.5.9s-.2.5-.4.7l-.3.5-1.5 2.2-1.5 2.3a17.3 17.3 0 0 0-1 2.4 7.5 7.5 0 0 0-.4 2.6 4.1 4.1 0 0 0 .3 1.6 5.2 5.2 0 0 0 .7 1.5l.7 1.2c.3.3.4.5.4.6s-.2.5-.5.7a2.3 2.3 0 0 1-1 .4l-1.3.3h-4.3a2.3 2.3 0 0 1-1.1-.4 2.2 2.2 0 0 1-.7-.9 5 5 0 0 1-.5-1.6l-.6-1.6a7.8 7.8 0 0 1-.2-1.6 2.8 2.8 0 0 1 .4-1.5l.9-1.6 1.1-1.5.8-1.4 2.4-5.9 2.4-5.8.5-.8a1.8 1.8 0 0 0 .5-.7 1.6 1.6 0 0 0 .4-.7 1.2 1.2 0 0 0 .2-.8q0-.6-.3-.6H103l-8.8 2.4-1.3.5-1.8.4a4.4 4.4 0 0 0-1.6.6 1 1 0 0 0-.6 1 2 2 0 0 0 .2.9l.7.7.8.5.7.6-.4.4-1.2-.8-1.4-.8-1.5-.6-1.5-.3a17.3 17.3 0 0 0-3.8.5l-3.9 1.2-4 1.1a20.1 20.1 0 0 1-4.2.5 17.7 17.7 0 0 1-3.4-.4 37 37 0 0 1-4.9-1.1l-5.3-1.7a46.7 46.7 0 0 1-5-2.3 17.6 17.6 0 0 1-3.6-2.6 4.4 4.4 0 0 1-1.4-3 4.6 4.6 0 0 1 1.1-3.2 6.1 6.1 0 0 1 2.7-1.6 19.4 19.4 0 0 1 3.5-.2c1.2 0 2.3.4 3.3.4h3.9c.2 0 .6-.4 1.3-.3a21.5 21.5 0 0 1 2.3.2l2.5.3 2 .3a4.5 4.5 0 0 1 1.9.5l1.7.8 1.8.8a6.9 6.9 0 0 0 2 .3 7.8 7.8 0 0 0 4-1.1 29.2 29.2 0 0 0 4-2.5 40.8 40.8 0 0 0 3.9-3.1l3.2-2.7 1.9-1.2 1.8-1.1a6.6 6.6 0 0 0 1.7-1.2 12.9 12.9 0 0 0 1.5-1.7c.9-1.4 1.8-2.9 2.6-4.4a24.3 24.3 0 0 1 2.6-4.4l1.3-1.3 1.6-1 1.6-.9 1.6-.9 3.5-2.6c1.2-.9 2.3-1.9 3.4-2.9l3.4-2.9c1.1-1 2.2-2 3.4-2.9a32.8 32.8 0 0 1 3.7-2.2l3.9-1.8 2.5-1.3 2.4-1.2c.8-.5 1.7-.8 2.5-1.2a13.4 13.4 0 0 1 2.7-.7l22.1-3.2a12.1 12.1 0 0 0 3.5-1.2 20.2 20.2 0 0 0 3.3-2.1 42 42 0 0 0 3.2-2.9c1-1 1.9-2.1 2.8-3.2l2.7-3.2 2.3-2.7 7.6-8.9.3-.3.5-.5.6-.5.2-.3 2-3.2.3-.2.4-.2.3-.3c.2 0 .2-.1.3-.2l.4-.4.3-.3 1.3-1.7 1.3-2a21.4 21.4 0 0 0 1.3-1.9l1-1.7a16.7 16.7 0 0 0 .8-2c.2-.7.5-1.4.7-2.1a19.5 19.5 0 0 1 .8-2.2c.2-.7 1-1.4 1-2.2v-6a4.8 4.8 0 0 0-1.1-3 10.7 10.7 0 0 0-2.6-2.6 11.9 11.9 0 0 0-3.3-1.8 8.4 8.4 0 0 0-3.2-.7 22.5 22.5 0 0 0-5.8.7 11.5 11.5 0 0 0-5 2.6 6.4 6.4 0 0 0-1.5 1.4l-1.6 1.8a16.3 16.3 0 0 1-1.7 2 15.3 15.3 0 0 1-1.8 1.8 6.8 6.8 0 0 1-1.8 1.3 3.2 3.2 0 0 1-1.8.6 1.7 1.7 0 0 1-1.6-1.6v-.5a1 1 0 0 1 .1-.4c0-.3.1-.5.1-.8a2.4 2.4 0 0 0 .2-.8c0-.2.1-.3.1-.4a4.7 4.7 0 0 0-.3-1.7l-.6-1.3-.6-1.2a5 5 0 0 1-.2-1.2c.4 0 .7-.1.8-.3l.5-.6c.1-.3.3-.5.4-.8a1.6 1.6 0 0 1 .8-.5c0-.1.2-.1.5-.1h2.3a1 1 0 0 0 .9-.4l.7-.6c.1-.1.2 0 .3 0h.1l.3.4c0 .2.1.3.1.4a.8.8 0 0 1 .4-.4l.7-.3 1-.7 1.4-.8a5.7 5.7 0 0 0 1.3-.8l1.1-.6.6-.4a17.3 17.3 0 0 1 2-1.2l1.8-.7 1.9-.2h6.4l1.4.5 1.5.3 1.6.3 1.5.5a16.1 16.1 0 0 1 4.5 3 16.7 16.7 0 0 1 3.2 4.2 20.3 20.3 0 0 1 1.7 4.9 24.7 24.7 0 0 1 .5 5.4v1.5a2.1 2.1 0 0 0 0 .8z"/></symbol><symbol id="micropachycephalosaurus" viewBox="0 0 256 256"><path d="M127.7 2a125.7 125.7 0 1 0 125.6 125.7A125.7 125.7 0 0 0 127.7 2zm108.6 114.7h-7.2a91 91 0 0 1-9.1-.4l-9-1-9-.9c-3-.3-6-.5-9-.5a145 145 0 0 0-16.1 1 76.3 76.3 0 0 0-15.7 3.7L131 129.4c-.4.1-.8.7-1.1 1.5a10.7 10.7 0 0 0-.8 2.7c-.3 1-.5 1.9-.7 2.8a9.8 9.8 0 0 1-.6 2 3.6 3.6 0 0 0 1.4 1.3l2.4 1.1 2.8 1.2 2.8 1.4a7.3 7.3 0 0 1 2 1.9 3.3 3.3 0 0 1 .8 2.4 1.6 1.6 0 0 1-.4 1.2l-1.2.9-1.6.7a8 8 0 0 0-1.6.8 4 4 0 0 0-1.2 1 2.5 2.5 0 0 0-.5 1.5 3.7 3.7 0 0 0 .8 2.5 5.8 5.8 0 0 0 1.9 1.5l2.3 1.4a6.2 6.2 0 0 1 2.2 1.7 19 19 0 0 1 2 3.4 25.3 25.3 0 0 1 1.2 3.6c.3 1.2.6 2.5.8 3.8s.1 2.6.2 3.9l1.3 1.3v7.1h.9l1 .2 1 .2.5.2a3.9 3.9 0 0 1 .1.9 3.4 3.4 0 0 1-.1.9 5.6 5.6 0 0 1-.4 1.2 2.1 2.1 0 0 1-.6 1 .8.8 0 0 1-.8.3h-5.2c-.2 0-.5-.6-1-.8l-1.4-.9-1.6-.8c-.5-.3-.9-.8-1.1-.8h-6.1a4.6 4.6 0 0 1 .6-2.9 5.2 5.2 0 0 1 1.7-1.6 6.5 6.5 0 0 1 2.1-.6l2.1-.4a4.4 4.4 0 0 0 1.6-.6 1.4 1.4 0 0 0 .6-1.3v-.3a.4.4 0 0 0-.1-.3 11.2 11.2 0 0 0-.8-1.8l-1.2-2.4-1.6-2.4a7.1 7.1 0 0 0-1.5-1.8l-1.3-.8-1.8-.9-1.8-1.1a1.9 1.9 0 0 1-.9-1.1 25.7 25.7 0 0 1-.9-2.9 28.3 28.3 0 0 0-1.1-3.1 6.9 6.9 0 0 0-1.7-2.6 3.7 3.7 0 0 0-2.8-1 20.6 20.6 0 0 0-6 .8 23.2 23.2 0 0 0-5.7 2.2 26.9 26.9 0 0 0-4.9 3.4 21.1 21.1 0 0 0-3.9 4.5l-.3.2h-.2c-.1 0-.1-.1-.1-.2s-.1-.1-.2-.3a1.4 1.4 0 0 0-.2-.6c0-.2-.1-.5-.1-.6l-.2-.4h-.3a1.3 1.3 0 0 0-1 .4l-.9 1.2-.8 1.3a4.4 4.4 0 0 1-.8 1 6.4 6.4 0 0 1-.7-1.6v-1.7a12.7 12.7 0 0 1 .3-2.8l.9-2.8a12.5 12.5 0 0 0 .9-2.5 15.9 15.9 0 0 0 .4-2.8H94c0-1.6.2-1.7.7-2.3a4.9 4.9 0 0 1 1.6-1.6 12.1 12.1 0 0 1 2-.9l2.1-.2h3l2.9.5 2.9.5 2.9.2h2.2a2.5 2.5 0 0 0-1.6-1.4l-2.5-.4-2.7-.2c-.9 0-1.6.2-2.2-.2l-3.8-2.2h-.3a16 16 0 0 0-3.1 0 10.8 10.8 0 0 1-3.1.2 7.3 7.3 0 0 1-3-.7l-2.6-1.4-2.6-1.3a4.8 4.8 0 0 0-2.8-.6v6l1.5-.2 1-.3.9-.5.9-.7h.6v2.7l2-.7c0 .2.2.3.2.5a2 2 0 0 0 .1.5 5.6 5.6 0 0 1-1.3 3.9 22.1 22.1 0 0 1-3.2 2.8 28.5 28.5 0 0 0-4.6-1.2l-4.7-.7v-7.7c0 .1-1 .3-1.7.6a12.1 12.1 0 0 0-2 .9 10.5 10.5 0 0 0-1.9 1.2c-.5.4-1 .8-1 1.2v6.8a9.6 9.6 0 0 0 3-.3 7.6 7.6 0 0 0 1.8-.6l1.2-.6 1.2-.2h.4a4.5 4.5 0 0 0 .2.8 7.3 7.3 0 0 1 .5 1.2 6.5 6.5 0 0 1 .4 1.3 5.1 5.1 0 0 1 .2.9 7.2 7.2 0 0 1-.4 1.9 17.4 17.4 0 0 1-1.1 1.8 4.7 4.7 0 0 1-1.5 1.3 3.2 3.2 0 0 1-1.8.6h-1.1l-2.9-.4-3.6-.7a9.3 9.3 0 0 1-3.2-1.3 2.5 2.5 0 0 1-1.5-2v-11.9c0-.1.4-.4.9-.8l1.9-1.6 2.3-2.1a28.4 28.4 0 0 0 2.4-2.6 15.1 15.1 0 0 0 1.8-2.6 5 5 0 0 0 .7-2.5 3.8 3.8 0 0 0-1.2-2.8 14.6 14.6 0 0 0-2.7-2l-3.2-1.4a11.3 11.3 0 0 1-2.5-.9l-1.3-9-.6-2.6a23.3 23.3 0 0 0-1.1-2.8 9.1 9.1 0 0 0-1.8-2.1 4.5 4.5 0 0 0-2.6-.8 12.8 12.8 0 0 0-3.6.4 13 13 0 0 0-3.2 1.5l-1.6 1-2.5 1.5-3 1.7-2.9 1.8-2.5 1.6c-.7.4-1.3 1.1-1.6 1.1h-1l-1.7-.2-2.1-.4a2.2 2.2 0 0 1-1.3-.8c-.5-.3-.4-.8-.4-1.3v-1.9c0-.6-.2-.9.1-.9h1.5v-.4l.2-.8a2.8 2.8 0 0 0 .1-.9 1.1 1.1 0 0 0 .1-.5 6 6 0 0 0-.8-.8l-.9-.5-.7-.6a2.3 2.3 0 0 1-.3-1.3 2.6 2.6 0 0 1 .3-1.1 3.7 3.7 0 0 1 .7-1.2c.2-.3.2-.6.6-.8a1.8 1.8 0 0 1 .8-.4v.8c0 .5.4 1 .5 1.5a1.4 1.4 0 0 0 1.2.7 1.8 1.8 0 0 0 1.1-.5 4.8 4.8 0 0 0 .9-1.1 11.1 11.1 0 0 0 .7-1.6c.1-.5.2.2.2-1.4H22.4a1.5 1.5 0 0 1-.8-.5l-1-.6a3.6 3.6 0 0 1-.9-.8 1.3 1.3 0 0 1-.4-1 4.6 4.6 0 0 1 1-3.2 10 10 0 0 1 2.6-1.8l3.1-1a17.1 17.1 0 0 0 2.9-.8l2.1-.9 3.4-1.5 3.3-1.6a8.8 8.8 0 0 1 2.1-1h13.5a7.9 7.9 0 0 1 3.8.9 12.6 12.6 0 0 1 3.1 2.5 28.5 28.5 0 0 1 2.5 3.3c.8 1.2 1.5 2.3 2.3 3.3a18.6 18.6 0 0 0 2.2 2.5 3.9 3.9 0 0 0 2.5 1 .8.8 0 0 0 .7-.4 1 1 0 0 1 .9-.4 4 4 0 0 1 1.5.3l1.5.7 1.5.7a4 4 0 0 0 1.5.3l4.1-.2 4-.4 4.1-.5a27.5 27.5 0 0 1 4.1-.2 55.8 55.8 0 0 1 7.2.4 31.1 31.1 0 0 1 7.1 1.5 52.1 52.1 0 0 1 5 2l5.1 2.1a44 44 0 0 0 5.1 1.8 25 25 0 0 0 5.4.7h2.5l12.8-2.6c4.2-.9 8.4-1.7 12.6-2.3s8.5-1.1 12.8-1.5 8.6-.6 13-.6h8.7a50.7 50.7 0 0 1 5 .9l36 7.2h11.6c-.8 0-1.9 1-3.1 1.3a18.4 18.4 0 0 1-4.1.2z"/></symbol><symbol id="velociraptor" viewBox="0 0 256 256"><path d="M132.8 150.5c-.3 0-.4.2-.4.6h-.1c-.3 0-.4.2-.4.5s.1.6.4.6.4-.2.4-.6h.1c.4 0 .5-.1.5-.5s-.1-.6-.5-.6zm1.5-.7a2.2 2.2 0 0 0-.9.7h.3a2.3 2.3 0 0 0 1.1-.3 1.6 1.6 0 0 0 .8-.8h-.3a1.4 1.4 0 0 0-1 .4zm3-2.6c-.3 0-.4.2-.4.6h-.2c-.2 0-.4.1-.4.5h-.1c-.3 0-.5.2-.5.6s.2.5.5.5.5-.1.5-.5c.3 0 .5-.2.5-.6h.1a.5.5 0 0 0 .5-.5c0-.4-.2-.6-.5-.6zm22.9-5.8a17.4 17.4 0 0 1-1.2 1.4 1.7 1.7 0 0 0 .8 1l1.1.2a2.4 2.4 0 0 0 1.4-.5 4 4 0 0 0 1-1.2 10 10 0 0 0 .8-1.4c.2-.6.4-1.2.5-1.2h-3.4c-.2 0-.5 1.1-1 1.7z"/><path d="M128.3 2A125.7 125.7 0 1 0 254 127.7 125.6 125.6 0 0 0 128.3 2zm94.3 74.5a4.2 4.2 0 0 1-1.6.4h-3.6l-5.2 1.2a20.4 20.4 0 0 0-3.6 1.6 8.3 8.3 0 0 0-2.4 2.1 14.1 14.1 0 0 0-1.8 2.9 40.4 40.4 0 0 0-1.5 3.9c-.4 1.5-1 3.1-1.6 5l-1.2 3.4-1.2 3.1a29.6 29.6 0 0 1-1.5 3.1 24.8 24.8 0 0 1-1.7 3.2 41 41 0 0 1-2.6 4.1l-2.9 3.6-3.1 3.5a39.3 39.3 0 0 0-3.1 3.8 11 11 0 0 0-1.4 2.6 19.9 19.9 0 0 1-.9 2.6 9.2 9.2 0 0 1-1.3 2.1 5.7 5.7 0 0 1-2.5 1.6 8.5 8.5 0 0 1-1.3.6l-2 .6-2 .7-1.4.3c.3 1 .4 1.6.2 2a2.2 2.2 0 0 1-.9 1l-1.2.5a1.6 1.6 0 0 0-.8 1l-2.3 6.7a2.1 2.1 0 0 1-1 1.4 5.1 5.1 0 0 1-1.8.9 12.3 12.3 0 0 1-1.9.2l-1.9-.2h-.8c-.5 0-.9.2-1.1.1s-.4-.3-.4-.8 0-.3.1-.4l.2-.3.2-.3c.1-.1.1-.2.1-.4v-.2a21.6 21.6 0 0 0-3.4 1.7l-3.3 2-3.3 2.2-3.3 1.9-.9.5-1.1.5a4.4 4.4 0 0 0-1 .8 1.4 1.4 0 0 0-.5 1c0 .1.1.2.1.4v.2l1.8 1.6a15.4 15.4 0 0 0 1.9 1.7 15.6 15.6 0 0 0 2 1.6 11.3 11.3 0 0 0 2.1 1.2 7.5 7.5 0 0 0 1.8.7l1.9.5 1.9.7a5.1 5.1 0 0 1 1.6.9 5.7 5.7 0 0 1 1.3 1.4l1.1 1.5a7.6 7.6 0 0 1 1.1 1.4 6.4 6.4 0 0 0 1.5 1.3 5.8 5.8 0 0 0 1.7.5l2 .7a5.2 5.2 0 0 1 1.8 1 2.1 2.1 0 0 1 .7 1.7v.5l-5.5 1.1-1.1.4a2.1 2.1 0 0 1-1.2.3h-.6l-1.1-.6-1.8-1-1.6-1a3.8 3.8 0 0 1-1.1-.8l-.2-.2-.3-.5-.3-.5-.3-.4-2.2-4.5-1.1-.4-1.8-.8-2.1-.9-2.1-1a7.5 7.5 0 0 1-1.8-.8l-1.1-.6-2.8-1.5a12.7 12.7 0 0 1-2.5-2.1 10.5 10.5 0 0 1-2-2.7 8.9 8.9 0 0 1-1.1-3.1l-.5.2-.6.4-.9.6-1.7 1.2-2 1.4-2.1 1.3-1.8 1.1-.9.5-5.9 3.5a17.7 17.7 0 0 0-4.5 3.4 15.4 15.4 0 0 0-3.6 4.4c-.9 1.6-.7 3.8-2.4 6.5v.2c0 .1.1.3 0 .4v1a10.4 10.4 0 0 0 1.2 4.4 7.4 7.4 0 0 0 2.1 2.5 8.2 8.2 0 0 0 2.6 1.4 14.5 14.5 0 0 1 2.5 1 6.1 6.1 0 0 1 2 .9 5.3 5.3 0 0 1 .8 2h-13.2l-.2-.4c-.1-.2-.2-.1-.4-.2h-.4l-.7-.4a2.6 2.6 0 0 1-1.2-1.5 10.8 10.8 0 0 1-.5-2.1c0-.8.2-1.5.2-2.3s.3-1.5.3-2V180a8.6 8.6 0 0 1 .3-1.7c.2-.8.3-1.7.6-2.7s.4-2 .7-3.1.6-2.1.8-3.1.5-1.9.7-2.7l.4-1.7c.2-.8.4-1.4.6-2l1-1.9a13.9 13.9 0 0 0 4.5-2.5 25 25 0 0 0 3.2-3.3l2.9-3.4a14.3 14.3 0 0 1 3.4-3l1.4-.7 2-.8 2.3-.9a10.5 10.5 0 0 0 2.1-1.2 5.3 5.3 0 0 0 1.6-1.3 2 2 0 0 0 .6-1.5v-1.3a1.7 1.7 0 0 0-.6-1.2l-.8-.3-1.2-.5-1.1-.6-.8-.3a9.4 9.4 0 0 1-2-1.2l-2.6-1.9-2.6-1.5a2.9 2.9 0 0 0-1.7-.6h-7.8c-5.9 0-11.7-.1-17.4.1s-11.6.2-17.5.2-8.6-.1-12.7-.3a98.4 98.4 0 0 1-12.3-1.4 82.5 82.5 0 0 1-11.9-2.9 64.5 64.5 0 0 1-11.6-5l-1.4-.7-1.6-1a8 8 0 0 1-1.3-1.3 2.7 2.7 0 0 1-.5-1.5 5.9 5.9 0 0 1 2.1.4l2.4.9a13.6 13.6 0 0 1 2.1 1l1.5.6 4.6 1.6a46.7 46.7 0 0 0 5 1.4 30.6 30.6 0 0 0 5.1 1 27.4 27.4 0 0 0 4.8.4h26.2l2.6-.4 3.3-.5 3.6-.6 3.4-.6 2.6-.6 6.8-1.3 7.3-1.6 7.2-2.1a55.1 55.1 0 0 0 6.5-2.7l3.8-1.8 3.8-1.6 3.9-1.3a27.1 27.1 0 0 1 4.1-.9h2.8l1.7-.2a2.3 2.3 0 0 0 1.1-.2l1.8-.3 3.3-.7 4.1-.9 4-.9c1.2-.3 2.3-.9 3.2-1.1s1.6-.7 1.9-.7h6.5a64.6 64.6 0 0 1 7.8.7c2.6.2 5.1.5 7.8.5a10.1 10.1 0 0 0 5-1.3 15.8 15.8 0 0 0 4.4-3.4 38.1 38.1 0 0 0 3.9-4.9c1.2-1.9 2.2-3.7 3.2-5.6s1.8-3.8 2.5-5.5l1.8-4.8c.4-1.2.8-2.3 1.1-3.4a22.6 22.6 0 0 1 1-3.1 10.3 10.3 0 0 1 1.2-2.6 6.5 6.5 0 0 1 1.7-2 9.5 9.5 0 0 1 2.6-1.6 12.9 12.9 0 0 1 3.8-.7h3c.8 1.6 1.7.9 2.9 1.3s2.4 1 3.6 1.5a11.9 11.9 0 0 1 2.9 1.8 2.7 2.7 0 0 1 1.2 2.1 2 2 0 0 1-.4 1.4 2.1 2.1 0 0 1-1.1.5z"/></symbol></svg>